<svg xml:space="preserve" class="jbicon application" viewBox="0 0 32 32">
  <path d="M0 0h32v32H0z" class="icon-frame"/>
  <path d="M17.2 26.9H4.9c-1.3 0-2.4-1.1-2.4-2.4V4.9c0-1.3 1.1-2.4 2.4-2.4h19.6c1.3 0 2.4 1.1 2.4 2.4v12.2m0-8.2H2.5m24.4 0H2.5" class="icon-path"/>
  <circle cx="6.2" cy="5.7" r="1.1" class="icon-fill"/>
  <circle cx="11" cy="5.7" r="1.1" class="icon-fill"/>
  <circle cx="15.7" cy="5.7" r="1.1" class="icon-fill"/>
  <path d="M29.5 23.9v-2.6h-1.9c-.1-.5-.3-.9-.5-1.3l1.3-1.3-1.8-1.8-1.3 1.3c-.4-.2-.8-.4-1.3-.5v-1.9h-2.6v1.9c-.5.1-.9.3-1.3.5l-1.3-1.3-1.8 1.8 1.3 1.3c-.2.4-.4.8-.5 1.3h-1.9v2.6h1.9c.1.5.3.9.5 1.3L17 26.5l1.8 1.8L20 27c.4.2.8.4 1.3.5v1.9h2.6v-1.9c.5-.1.9-.3 1.3-.5l1.3 1.3 1.8-1.8-1.3-1.3c.2-.4.4-.8.5-1.3h2zm-6.9 1.2c-1.4 0-2.5-1.1-2.5-2.5s1.1-2.5 2.5-2.5 2.5 1.1 2.5 2.5-1.1 2.5-2.5 2.5z" class="icon-path"/>
</svg>