<svg xml:space="preserve" class="jbicon business-strucure" viewBox="0 0 32 32">
  <path d="M0 0h32v32H0z" class="icon-frame"/>
  <path d="M9.6 19.9H3.3V7.4h6.3m12.8 0h6.3v12.5h-6.3M9.6 2.5h12.8v17.4H9.6zM16 19.9v2.6m8.5 0h-17m8.5.1v2.1m8.5-2.1v2.1m-17-2.1v2.1" class="icon-path"/>
  <circle cx="16" cy="27.1" r="2.3" class="icon-path"/>
  <circle cx="24.5" cy="27.1" r="2.3" class="icon-path"/>
  <circle cx="7.5" cy="27.1" r="2.3" class="icon-path"/>
  <path d="M12.4 14.4h7.2v5.5h-7.2zm-7-4.1h2v2h-2zm0 4.1h2v2h-2zm19.2-4.1h2v2h-2zm0 4.1h2v2h-2zM12.4 6.2h7.2v2h-7.2zm0 4.1h7.2v2h-7.2z" class="icon-path"/>
</svg>