<svg xml:space="preserve" class="jbicon cog-wheel" viewBox="0 0 32 32">
  <path d="M0 0h32v32H0z" class="icon-frame"/>
  <path d="M27.4 16.5v-5.1h-3.7c-.2-.9-.6-1.8-1.1-2.6l2.6-2.6-3.6-3.6L19 5.2c-.8-.5-1.7-.8-2.6-1.1V.5h-5.1v3.7c-.9.2-1.8.6-2.6 1.1L6.3 2.6 2.6 6.3l2.6 2.6c-.5.8-.8 1.7-1.1 2.6H.5v5.1h3.7c.2.9.6 1.8 1.1 2.6l-2.6 2.6 3.6 3.6 2.6-2.6c.8.5 1.7.8 2.6 1.1v3.7h5.1v-3.7c.9-.2 1.8-.6 2.6-1.1l2.6 2.6 3.6-3.6-2.6-2.6c.5-.8.8-1.7 1.1-2.6h3.5zM14 18.9c-2.8 0-5-2.2-5-4.9 0-2.8 2.2-5 5-5 2.7 0 4.9 2.2 4.9 4.9 0 2.8-2.2 5-4.9 5z" class="icon-path"/>
</svg>