<svg xml:space="preserve" class="jbicon data-chip_01" viewBox="0 0 32 32">
  <path d="M0 0h32v32H0z" class="icon-frame"/>
  <path d="M27.2 30H4.8C3.2 30 2 28.8 2 27.2V4.8C2 3.2 3.2 2 4.8 2h22.5C28.8 2 30 3.2 30 4.8v22.5c0 1.5-1.2 2.7-2.8 2.7z" class="icon-path"/>
  <path d="M20.5 21.6h-9.1c-.6 0-1.1-.5-1.1-1.1v-9.1c0-.6.5-1.1 1.1-1.1h9.1c.6 0 1.1.5 1.1 1.1v9.1c0 .6-.5 1.1-1.1 1.1zm-7.1-11.2V6.9m2.6 3.5V6.9m2.5 3.5V6.9m-5.1 18.2v-3.5m2.6 3.5v-3.5m2.5 3.5v-3.5m-8.2-3.1H6.9m3.4-2.5H6.9m3.4-2.5H6.9m18.2 5h-3.5m3.5-2.5h-3.5m3.5-2.5h-3.5" class="icon-path"/>
</svg>