<svg xml:space="preserve" class="jbicon filter" viewBox="0 0 32 32">
  <path d="M0 0h32v32H0z" class="icon-frame"/>
  <path d="M24.7 7.6c0 1.8-1.4 3.2-3.2 3.2-1.8 0-3.2-1.4-3.2-3.2m6.4 0c0-1.8-1.4-3.2-3.2-3.2-1.8 0-3.2 1.4-3.2 3.2m2.4 16.8c0 1.8-1.4 3.2-3.2 3.2-1.8 0-3.2-1.4-3.2-3.2m6.4 0c0-1.8-1.4-3.2-3.2-3.2-1.8 0-3.2 1.4-3.2 3.2M7.1 16H2.4m11.1 0h16.1M18.3 7.6H2.4m22.3 0h4.9m-8.9 16.8h8.9m-15.4 0H2.4M13.5 16c0-1.8-1.4-3.2-3.2-3.2-1.8 0-3.2 1.4-3.2 3.2m6.4 0c0 1.8-1.4 3.2-3.2 3.2-1.8 0-3.2-1.4-3.2-3.2" class="icon-path"/>
</svg>