<svg class="jbicon information" viewBox="0 0 32 32">
  <path d="M0 0h32v32H0z" class="icon-frame"/>
      <path id="a" d="M16 2.5C8.6 2.5 2.5 8.6 2.5 16c0 7.5 6.1 13.5 13.5 13.5 7.5 0 13.5-6.1 13.5-13.5S23.4 2.5 16 2.5z" class="icon-path"/>
  <path d="M16.4 9c1 0 1.8.8 1.8 1.8-.1 1-.8 1.8-1.8 1.8s-1.8-.8-1.8-1.8c.1-1 .9-1.8 1.8-1.8zm2.5 12.6c-.5 1.9-5.7 2.1-5.3-.5.2-1.8.6-3.4.9-5.1.2-1.1-.5-.8-1.2-1-.4-.2-.4-.7.1-.8.6-.2 2.9-.1 3.7-.1.4 0 .6.2.7.6 0 .4-.1.6-.1 1-.3 1.6-.7 3.4-.9 5 0 .4.1 1 .6.9.5 0 .8-.2 1.2-.4.2-.1.4.1.3.4z" class="icon-fill"/>
</svg>