<?xml version="1.0" encoding="utf-8"?>
<!-- Generator: Adobe Illustrator 19.2.1, SVG Export Plug-In . SVG Version: 6.00 Build 0)  -->
<svg version="1.1" id="Layer_1" xmlns="http://www.w3.org/2000/svg" xmlns:xlink="http://www.w3.org/1999/xlink" x="0px" y="0px"
	 viewBox="0 0 83 24" style="enable-background:new 0 0 83 24;" xml:space="preserve">
<style type="text/css">
	.st0{fill:#565656;}
	.st1{fill-rule:evenodd;clip-rule:evenodd;fill:#565656;}
	.st2{fill-rule:evenodd;clip-rule:evenodd;fill:#FFFFFF;}
</style>
<g>
	<path class="st0" d="M60.6,2.9c0-0.8,0.7-1.5,1.6-1.5h18.1c0.9,0,1.6,0.7,1.6,1.5v18.3c0,0.8-0.7,1.5-1.6,1.5H62.2
		c-0.9,0-1.6-0.7-1.6-1.5V2.9L60.6,2.9z"/>
	<polygon class="st0" points="1.1,19.3 10,19.3 10,16.4 4.3,16.4 4.3,5.6 1.1,5.6 1.1,19.3 	"/>
	<path class="st1" d="M14.5,19.3V9.7h-3.2v9.7H14.5L14.5,19.3z M12.9,8.4c1.1,0,1.8-0.7,1.8-1.7C14.6,5.7,14,5,12.9,5
		c-1.1,0-1.8,0.7-1.8,1.7C11.1,7.6,11.8,8.4,12.9,8.4L12.9,8.4L12.9,8.4z"/>
	<path class="st1" d="M15.9,19.3h3.2v-5.4c0-0.3,0-0.6,0.1-0.8c0.2-0.6,0.8-1.2,1.6-1.2c1.2,0,1.6,0.9,1.6,2.2v5.2h3.2v-5.5
		c0-3-1.6-4.4-3.7-4.4c-1.7,0-2.5,1-2.9,1.6h0V9.7h-3.2C16,10.6,15.9,19.3,15.9,19.3L15.9,19.3z"/>
	<path class="st0" d="M30.3,5.6h-3.2v13.8h3.2v-3.1l0.8-1l2.5,4.1h4l-4.2-6L37,9.3h-3.9c0,0-2.6,3.7-2.9,4.1V5.6L30.3,5.6z"/>
	<path class="st1" d="M46.2,15.3c0-0.2,0.1-0.7,0.1-1.3c0-2.5-1.3-5-4.6-5c-3.6,0-5.2,2.8-5.2,5.4c0,3.2,2,5.1,5.5,5.1
		c1.4,0,2.7-0.2,3.7-0.6l-0.4-2.1c-0.9,0.3-1.8,0.4-2.9,0.4c-1.5,0-2.8-0.6-2.9-1.9L46.2,15.3L46.2,15.3z M39.5,13.1
		c0.1-0.8,0.6-2,2-2c1.5,0,1.8,1.3,1.8,2H39.5L39.5,13.1z"/>
	<path class="st1" d="M54.2,5.6v4.6h0C53.7,9.5,52.7,9,51.4,9c-2.5,0-4.7,2-4.6,5.4c0,3.1,2,5.2,4.4,5.2c1.3,0,2.6-0.6,3.2-1.7h0.1
		l0.1,1.5h2.9c0-0.7-0.1-1.9-0.1-3V5.6H54.2L54.2,5.6z M54.2,14.9c0,0.2,0,0.5-0.1,0.7c-0.2,0.9-1,1.5-1.9,1.5
		c-1.3,0-2.2-1.1-2.2-2.8c0-1.6,0.7-2.9,2.2-2.9c1,0,1.7,0.7,1.9,1.5c0,0.2,0,0.4,0,0.6V14.9L54.2,14.9z"/>
	<path class="st2" d="M67.1,19.3V9.7h-3.2v9.7H67.1L67.1,19.3z M65.5,8.3c1.1,0,1.8-0.7,1.8-1.7c0-0.9-0.7-1.7-1.8-1.7
		s-1.8,0.7-1.8,1.7C63.7,7.6,64.4,8.3,65.5,8.3L65.5,8.3L65.5,8.3z"/>
	<path class="st2" d="M68.9,19.3h3.2v-5.4c0-0.3,0-0.6,0.1-0.8c0.2-0.6,0.8-1.2,1.6-1.2c1.2,0,1.6,0.9,1.6,2.2v5.2h3.2v-5.5
		c0-3-1.6-4.4-3.7-4.4c-1.7,0-2.5,1-2.9,1.6h0V9.7h-3.2C68.9,10.6,68.9,19.3,68.9,19.3L68.9,19.3z"/>
</g>
</svg>
