<?xml version="1.0" encoding="utf-8"?>
<!-- Generator: Adobe Illustrator 21.0.2, SVG Export Plug-In . SVG Version: 6.00 Build 0)  -->
<svg version="1.1" id="Layer_1" xmlns="http://www.w3.org/2000/svg" xmlns:xlink="http://www.w3.org/1999/xlink" x="0px" y="0px"
	 viewBox="0 0 124.5 36" style="enable-background:new 0 0 124.5 36;" xml:space="preserve">
<style type="text/css">
	.st0{opacity:0.85;}
</style>
<polygon class="st0" points="1.7,28.9 15,28.9 15,24.6 6.5,24.6 6.5,8.4 1.7,8.4 "/>
<path class="st0" d="M21.8,28.9V14.5H17v14.5h4.8V28.9z M19.3,12.6c1.7,0,2.7-1.1,2.7-2.6c-0.1-1.5-1-2.5-2.7-2.5
	c-1.6,0-2.7,1-2.7,2.5C16.7,11.4,17.7,12.6,19.3,12.6L19.3,12.6L19.3,12.6z"/>
<path class="st0" d="M23.8,28.9h4.8v-8.1c0-0.4,0-0.9,0.1-1.2c0.3-0.9,1.2-1.8,2.4-1.8c1.8,0,2.4,1.4,2.4,3.3v7.8h4.8v-8.2
	c0-4.5-2.4-6.6-5.5-6.6c-2.6,0-3.8,1.5-4.3,2.4l0,0v-2h-4.8C24,15.9,23.8,28.9,23.8,28.9L23.8,28.9z"/>
<path class="st0" d="M45.4,8.4h-4.8v20.7h4.8v-4.6l1.2-1.5l3.8,6.1h6l-6.3-9l5.4-6.1h-5.9c0,0-3.9,5.5-4.3,6.1V8.4H45.4z"/>
<path class="st0" d="M69.3,23c0-0.3,0.1-1,0.1-2c0-3.8-1.9-7.5-6.9-7.5c-5.4,0-7.8,4.2-7.8,8.1c0,4.8,3,7.7,8.2,7.7
	c2.1,0,4.1-0.3,5.6-0.9l-0.6-3.1c-1.3,0.4-2.7,0.6-4.3,0.6c-2.2,0-4.2-0.9-4.4-2.9L69.3,23L69.3,23z M59.2,19.7c0.1-1.2,0.9-3,3-3
	c2.2,0,2.7,1.9,2.7,3H59.2L59.2,19.7z"/>
<path class="st0" d="M81.3,8.4v6.9l0,0c-0.8-1-2.2-1.8-4.2-1.8c-3.8,0-7.1,3-6.9,8.1c0,4.7,3,7.8,6.6,7.8c2,0,3.9-0.9,4.8-2.6h0.2
	l0.1,2.2h4.4c0-1.1-0.2-2.9-0.2-4.5V8.4H81.3L81.3,8.4z M81.3,22.3c0,0.3,0,0.8-0.2,1.1c-0.3,1.4-1.5,2.2-2.8,2.2
	c-1.9,0-3.3-1.7-3.3-4.2c0-2.4,1.1-4.4,3.3-4.4c1.5,0,2.6,1,2.8,2.2c0,0.3,0,0.6,0,0.9v2.1H81.3z"/>
<path class="st0" d="M120.5,2.1H93.3c-1.3,0-2.4,1-2.4,2.2v27.5c0,1.2,1,2.2,2.4,2.2h27.2c1.3,0,2.4-1,2.4-2.2V4.3
	C122.8,3.1,121.8,2.1,120.5,2.1z M100.7,29v0.1h-4.8V14.5h4.8V29z M98.2,12.5c-1.7,0-2.7-1.1-2.7-2.6s1-2.5,2.7-2.5s2.7,1.2,2.7,2.5
	C101,11.4,99.9,12.5,98.2,12.5z M117.9,29h-4.8v-7.8c0-1.9-0.6-3.3-2.4-3.3c-1.2,0-2.1,0.9-2.4,1.8c-0.1,0.3-0.1,0.8-0.1,1.2V29
	h-4.8c0,0,0-13.1-0.1-14.4h4.8v2c0.6-0.9,1.8-2.4,4.3-2.4c3.2,0,5.5,2.1,5.5,6.6V29z"/>
</svg>
